HIERARCHY
ROOT Hips
{
	OFFSET 0.000000 0.000000 0.000000
	CHANNELS 6 Xposition Yposition Zposition Xrotation Yrotation Zrotation
	JOINT Spine
	{
		OFFSET 0.000000 0.044490 0.066735
		CHANNELS 3 Xrotation Yrotation Zrotation
		JOINT Spine1
		{
			OFFSET 0.000000 0.015451 0.087628
			CHANNELS 3 Xrotation Yrotation Zrotation
			JOINT Spine2
			{
				OFFSET 0.000000 0.007755 0.088641
				CHANNELS 3 Xrotation Yrotation Zrotation
				JOINT Spine3
				{
					OFFSET 0.000000 0.000000 0.088980
					CHANNELS 3 Xrotation Yrotation Zrotation
					JOINT Neck
					{
						OFFSET 0.000000 -0.033367 0.233572
						CHANNELS 3 Xrotation Yrotation Zrotation
						JOINT Head
						{
							OFFSET 0.000000 -0.021245 0.120488
							CHANNELS 3 Xrotation Yrotation Zrotation
							End Site
							{
								OFFSET 0.000000 0.000000 0.000000
							}
						}
					}
					JOINT RightShoulder
					{
						OFFSET -0.026917 -0.044862 0.145355
						CHANNELS 3 Xrotation Yrotation Zrotation
						JOINT RightArm
						{
							OFFSET -0.133690 0.000000 0.000000
							CHANNELS 3 Xrotation Yrotation Zrotation
							JOINT RightForeArm
							{
								OFFSET -0.257725 0.000000 0.000000
								CHANNELS 3 Xrotation Yrotation Zrotation
								JOINT RightHand
								{
									OFFSET -0.216749 0.000000 0.000000
									CHANNELS 3 Xrotation Yrotation Zrotation
									JOINT RightHandEnd
									{
										OFFSET -0.062518 0.000000 0.000000
										CHANNELS 3 Xrotation Yrotation Zrotation
										End Site
										{
											OFFSET 0.000000 0.000000 0.000000
										}
									}
									JOINT RightHandThumb1
									{
										OFFSET -0.025007 -0.041679 -0.016672
										CHANNELS 3 Xrotation Yrotation Zrotation
										End Site
										{
											OFFSET 0.000000 0.000000 0.000000
										}
									}
								}
							}
						}
					}
					JOINT LeftShoulder
					{
						OFFSET 0.026917 -0.044862 0.145355
						CHANNELS 3 Xrotation Yrotation Zrotation
						JOINT LeftArm
						{
							OFFSET 0.133690 0.000000 0.000000
							CHANNELS 3 Xrotation Yrotation Zrotation
							JOINT LeftForeArm
							{
								OFFSET 0.257725 0.000000 0.000000
								CHANNELS 3 Xrotation Yrotation Zrotation
								JOINT LeftHand
								{
									OFFSET 0.216749 0.000000 0.000000
									CHANNELS 3 Xrotation Yrotation Zrotation
									JOINT LeftHandEnd
									{
										OFFSET 0.062518 0.000000 0.000000
										CHANNELS 3 Xrotation Yrotation Zrotation
										End Site
										{
											OFFSET 0.000000 0.000000 0.000000
										}
									}
									JOINT LeftHandThumb1
									{
										OFFSET 0.025007 -0.041679 -0.016672
										CHANNELS 3 Xrotation Yrotation Zrotation
										End Site
										{
											OFFSET 0.000000 0.000000 0.000000
										}
									}
								}
							}
						}
					}
				}
			}
		}
	}
	JOINT RightUpLeg
	{
		OFFSET -0.079855 0.000000 -0.023329
		CHANNELS 3 Xrotation Yrotation Zrotation
		JOINT RightLeg
		{
			OFFSET 0.000000 0.000000 -0.366572
			CHANNELS 3 Xrotation Yrotation Zrotation
			JOINT RightFoot
			{
				OFFSET 0.000000 0.000000 -0.363650
				CHANNELS 3 Xrotation Yrotation Zrotation
				JOINT RightToeBase
				{
					OFFSET 0.000000 -0.114715 -0.041753
					CHANNELS 3 Xrotation Yrotation Zrotation
					End Site
					{
						OFFSET 0.000000 0.000000 0.000000
					}
				}
			}
		}
	}
	JOINT LeftUpLeg
	{
		OFFSET 0.079855 0.000000 -0.023329
		CHANNELS 3 Xrotation Yrotation Zrotation
		JOINT LeftLeg
		{
			OFFSET 0.000000 0.000000 -0.366572
			CHANNELS 3 Xrotation Yrotation Zrotation
			JOINT LeftFoot
			{
				OFFSET 0.000000 0.000000 -0.363650
				CHANNELS 3 Xrotation Yrotation Zrotation
				JOINT LeftToeBase
				{
					OFFSET 0.000000 -0.114715 -0.041753
					CHANNELS 3 Xrotation Yrotation Zrotation
					End Site
					{
						OFFSET 0.000000 0.000000 0.000000
					}
				}
			}
		}
	}
}
MOTION
Frames: 6
Frame Time: 0.033333
0.382298 -0.527299 0.807631 1.849800 -2.574600 -91.896100 -1.301200 -0.354400 0.061200 -1.014700 -0.694700 -0.150000 0.371500 -0.089100 -2.081600 0.121000 0.174500 -0.623500 -3.863100 -0.650600 -0.315500 1.333700 0.199800 0.610500 -2.403400 11.640600 2.218000 -3.459900 -1.505000 -3.977500 0.000000 0.000000 1.906900 -0.990100 5.276400 -8.553300 0.000000 0.000000 0.000000 0.000000 0.000000 0.000000 -2.686400 -12.233000 -3.653300 -0.130400 7.688200 13.303000 0.000000 0.000000 -8.862500 -2.793600 -1.188000 4.414600 0.000000 0.000000 0.000000 0.000000 0.000000 0.000000 1.233400 2.247400 -6.434900 -2.343000 0.000000 0.000000 -3.789100 -5.916900 -11.117600 1.224800 0.000000 0.000000 -0.373100 -3.946800 26.827900 1.516800 0.000000 0.000000 -2.864900 3.143200 1.030100 -0.263400 0.000000 0.000000 
0.382006 -0.527063 0.807651 1.851200 -2.569000 -91.828200 -1.290000 -0.364700 0.063700 -1.014700 -0.695800 -0.150600 0.397300 -0.082200 -2.084700 0.123500 0.183900 -0.629900 -3.869700 -0.624200 -0.330400 1.305200 0.127200 0.581300 -2.368900 11.722800 2.216100 -3.474300 -1.611500 -3.984000 0.000000 0.000000 1.896300 -0.916700 5.233100 -8.574100 0.000000 0.000000 0.000000 0.000000 0.000000 0.000000 -2.719300 -12.270700 -3.682600 -0.090700 7.745900 13.262100 0.000000 0.000000 -8.852100 -2.689200 -0.919600 4.437600 0.000000 0.000000 0.000000 0.000000 0.000000 0.000000 1.233400 2.228000 -6.546800 -2.265600 0.000000 0.000000 -3.842100 -5.881800 -11.068800 1.215600 0.000000 0.000000 -0.432100 -3.998200 26.681100 1.677300 0.000000 0.000000 -2.915200 3.153900 1.120100 -0.315900 0.000000 0.000000 
0.381551 -0.526661 0.807679 1.865300 -2.574500 -91.724100 -1.283200 -0.376200 0.069200 -1.017400 -0.700600 -0.151300 0.430400 -0.080500 -2.090300 0.127300 0.199100 -0.639400 -3.883100 -0.579200 -0.353900 1.267400 0.032100 0.512800 -2.316900 11.823800 2.218500 -3.472500 -1.732400 -3.992400 0.000000 0.000000 1.873200 -0.828700 5.156100 -8.600700 0.000000 0.000000 0.000000 0.000000 0.000000 0.000000 -2.723700 -12.299700 -3.711000 -0.034700 7.778700 13.188200 0.000000 0.000000 -8.878300 -2.622700 -0.627100 4.425800 0.000000 0.000000 0.000000 0.000000 0.000000 0.000000 1.226300 2.182400 -6.687400 -2.158800 0.000000 0.000000 -3.922600 -5.838400 -11.020300 1.183200 0.000000 0.000000 -0.531300 -4.091200 26.477500 1.915100 0.000000 0.000000 -2.989800 3.142900 1.229800 -0.413500 0.000000 0.000000 
0.381091 -0.526217 0.807687 1.883600 -2.596900 -91.623500 -1.284300 -0.380000 0.076000 -1.021000 -0.706700 -0.151800 0.444200 -0.072000 -2.093600 0.129800 0.214800 -0.649900 -3.906500 -0.549000 -0.391300 1.241700 -0.054700 0.434400 -2.286800 11.883500 2.237700 -3.522200 -1.798200 -4.010100 0.000000 0.000000 1.850500 -0.801100 5.143300 -8.608100 0.000000 0.000000 0.000000 0.000000 0.000000 0.000000 -2.695800 -12.314300 -3.740400 0.015200 7.750900 13.119000 0.000000 0.000000 -8.931000 -2.605600 -0.542500 4.375900 0.000000 0.000000 0.000000 0.000000 0.000000 0.000000 1.214000 2.130000 -6.781900 -2.076300 0.000000 0.000000 -3.998900 -5.803400 -11.011400 1.152800 0.000000 0.000000 -0.635900 -4.188400 26.354300 2.130600 0.000000 0.000000 -3.061800 3.128900 1.276000 -0.491500 0.000000 0.000000 
0.380728 -0.525810 0.807679 1.890700 -2.637300 -91.534200 -1.292300 -0.374700 0.080500 -1.024000 -0.708200 -0.150900 0.432800 -0.041900 -2.100300 0.128200 0.227400 -0.663600 -3.950500 -0.560300 -0.445800 1.241900 -0.119800 0.387200 -2.285600 11.898000 2.264900 -3.590200 -1.816900 -4.027300 0.000000 0.000000 1.846800 -0.805900 5.155600 -8.591700 0.000000 0.000000 0.000000 0.000000 0.000000 0.000000 -2.690900 -12.342600 -3.781400 0.036600 7.690000 13.081000 0.000000 0.000000 -8.980800 -2.596500 -0.641100 4.325800 0.000000 0.000000 0.000000 0.000000 0.000000 0.000000 1.196900 2.093000 -6.833400 -2.040500 0.000000 0.000000 -4.053900 -5.777400 -11.036000 1.148000 0.000000 0.000000 -0.733100 -4.258500 26.354900 2.277200 0.000000 0.000000 -3.115500 3.147300 1.234300 -0.499700 0.000000 0.000000 
0.380444 -0.525437 0.807674 1.890300 -2.688800 -91.440000 -1.303600 -0.367900 0.080500 -1.029600 -0.702100 -0.149600 0.417900 -0.002200 -2.122700 0.124700 0.236500 -0.680100 -4.019900 -0.605700 -0.496500 1.262300 -0.150800 0.386300 -2.274800 11.906900 2.279300 -3.528400 -1.829000 -4.015600 0.000000 0.000000 1.862900 -0.769500 5.085100 -8.566000 0.000000 0.000000 0.000000 0.000000 0.000000 0.000000 -2.732000 -12.401400 -3.820700 0.034100 7.643700 13.061400 0.000000 0.000000 -9.022600 -2.607200 -0.727500 4.304900 0.000000 0.000000 0.000000 0.000000 0.000000 0.000000 1.180600 2.064800 -6.886800 -2.040500 0.000000 0.000000 -4.091500 -5.749300 -11.066900 1.154200 0.000000 0.000000 -0.817600 -4.304900 26.408500 2.355800 0.000000 0.000000 -3.145000 3.190800 1.146400 -0.453600 0.000000 0.000000 
